<?xml version="1.0" standalone="no"?>
<!DOCTYPE svg PUBLIC "-//W3C//DTD SVG 20010904//EN"
 "http://www.w3.org/TR/2001/REC-SVG-20010904/DTD/svg10.dtd">
<svg version="1.0" xmlns="http://www.w3.org/2000/svg"
 width="32.000000pt" height="37.000000pt" viewBox="0 0 32.000000 37.000000"
 preserveAspectRatio="xMidYMid meet">
<metadata>
Created by potrace 1.11, written by Peter Selinger 2001-2013
</metadata>
<g transform="translate(0.000000,37.000000) scale(0.100000,-0.100000)"
fill="#000000" stroke="none">
<path d="M112 326 c-35 -34 -40 -47 -41 -113 -1 -34 -8 -51 -36 -82 -19 -21
-35 -43 -35 -49 0 -16 35 -33 83 -38 23 -3 46 -12 50 -20 10 -18 44 -18 54 0
4 8 30 17 57 20 49 6 76 20 76 39 0 5 -16 27 -35 48 -28 31 -35 48 -36 82 0
23 -2 50 -4 61 -4 21 -72 87 -89 85 -6 -1 -26 -15 -44 -33z m102 -38 c8 -13
16 -48 17 -78 2 -46 8 -60 37 -92 31 -34 32 -38 16 -45 -25 -10 -224 -10 -248
0 -18 7 -17 10 14 42 27 28 33 43 39 98 8 79 21 97 72 97 29 0 42 -6 53 -22z"/>
</g>
</svg>
